<svg class="img-fluid" id="outputsvg" xmlns="http://www.w3.org/2000/svg" style="transform: none; transform-origin: 50% 50%; cursor: move;" width="1024" height="1024" viewBox="0 0 10240 10240"><g id="lmCKfqN9kbC1TXYL3Axti0" fill="rgb(251,251,251)" style="transform: none;"><g style="transform: none;"><path id="pKOOw3MaO" d="M5085 9878 c-2 -7 -22 -88 -45 -181 -89 -360 -241 -822 -387 -1177 -85 -208 -301 -641 -407 -818 -337 -564 -732 -1011 -1226 -1389 -352 -269 -811 -523 -1290 -715 -350 -140 -826 -281 -1210 -358 -85 -17 -165 -33 -178 -36 -18 -3 -22 -11 -22 -39 0 -18 4 -36 8 -39 4 -2 70 -19 147 -36 267 -61 862 -241 1082 -326 34 -13 72 -24 84 -24 12 0 30 -6 38 -14 9 -8 63 -33 121 -56 161 -64 575 -254 630 -290 44 -28 125 -70 136 -70 7 0 16 -5 19 -10 6 -10 111 -80 119 -80 7 0 327 -220 386 -265 212 -163 521 -458 682 -652 373 -449 679 -989 938 -1658 156 -402 294 -860 357 -1182 l18 -93 37 0 c31 0 38 4 42 23 151 734 441 1526 783 2132 244 432 457 719 763 1026 394 395 782 666 1355 945 444 216 879 373 1520 547 110 30 237 63 283 72 l83 18 -3 36 c-3 32 -7 37 -38 43 -19 4 -71 15 -115 24 -115 23 -278 60 -450 100 -271 63 -712 211 -955 320 -42 19 -79 34 -82 34 -10 0 -377 181 -473 233 -225 122 -474 288 -720 481 -668 524 -1222 1322 -1598 2302 -126 328 -278 814 -338 1082 l-23 102 -33 0 c-19 0 -35 -6 -38 -12z"></path><path id="psMHyLYnF" d="M8555 3148 c-2 -7 -16 -56 -31 -108 -98 -346 -272 -641 -485 -826 -191 -166 -468 -299 -746 -361 -82 -18 -83 -18 -83 -49 0 -17 6 -36 13 -42 6 -5 57 -22 112 -37 120 -32 301 -102 409 -158 371 -191 643 -552 776 -1024 l23 -83 46 0 46 0 43 138 c53 166 140 351 229 486 84 128 264 310 383 389 168 110 420 218 630 269 l90 22 0 32 c0 37 7 33 -127 64 -51 12 -95 26 -98 31 -3 4 -52 23 -108 40 -124 38 -367 156 -438 213 -276 220 -431 453 -559 835 -27 82 -50 157 -50 165 0 20 -69 23 -75 4z"></path></g></g><g id="l906d82y5uybmdBquq8Q6s" fill="rgb(23,30,78)" style="transform: none;"><g style="transform: none;"><path id="pcgo7FJIQ" d="M5041 10093 c-6 -21 -18 -72 -27 -113 -38 -173 -120 -472 -196 -715 -358 -1155 -887 -2042 -1578 -2650 -584 -513 -1333 -904 -2205 -1150 -285 -80 -773 -189 -988 -220 l-48 -7 3 -65 3 -65 350 -88 c384 -96 379 -94 680 -186 536 -162 933 -321 1319 -527 1051 -560 1725 -1346 2226 -2597 183 -455 310 -873 440 -1450 28 -124 53 -233 56 -242 4 -14 16 -18 49 -18 38 0 45 3 50 23 3 12 21 95 40 184 165 768 386 1423 678 2008 260 522 546 933 882 1270 712 714 1668 1182 3165 1551 146 36 273 68 283 70 14 4 17 17 17 73 l0 67 -92 13 c-102 13 -548 105 -708 146 -845 214 -1617 568 -2170 994 -986 759 -1615 1858 -2041 3564 l-41 167 -69 0 -68 0 -10 -37z m243 -823 c391 -1287 1001 -2268 1801 -2896 246 -193 495 -359 720 -481 96 -52 463 -233 473 -233 3 0 40 -15 82 -34 243 -109 684 -257 955 -320 250 -58 484 -109 557 -121 62 -10 52 -21 -35 -40 -45 -10 -172 -42 -282 -72 -641 -174 -1076 -331 -1520 -547 -573 -279 -961 -550 -1355 -945 -192 -193 -280 -296 -440 -516 -488 -673 -908 -1675 -1106 -2642 -8 -43 -19 -23 -37 70 -63 322 -201 780 -357 1182 -259 669 -565 1209 -938 1658 -161 194 -470 489 -682 652 -59 45 -379 265 -386 265 -8 0 -113 70 -119 80 -3 5 -12 10 -19 10 -11 0 -92 42 -136 70 -55 36 -469 226 -630 290 -58 23 -112 48 -121 56 -8 8 -26 14 -38 14 -12 0 -50 11 -84 24 -220 86 -816 265 -1082 326 -144 32 -176 45 -134 54 13 3 94 19 179 36 719 144 1458 420 2017 751 730 434 1267 971 1709 1711 106 177 322 610 407 818 146 355 298 817 387 1177 23 93 44 175 46 183 3 8 27 -70 54 -175 27 -104 78 -287 114 -405z"></path><path id="p1Cb5aPQKG" d="M8531 3323 c-5 -10 -27 -88 -49 -173 -153 -587 -418 -927 -874 -1120 -122 -51 -354 -123 -503 -155 -44 -10 -86 -22 -93 -28 -8 -6 -12 -27 -10 -56 l3 -46 135 -36 c459 -121 716 -253 928 -473 189 -197 312 -442 422 -846 l47 -175 53 0 53 0 37 140 c108 398 207 614 377 818 206 246 475 393 963 526 l175 48 0 54 0 53 -120 27 c-240 55 -475 136 -625 216 -381 204 -609 531 -766 1098 -41 148 -39 145 -95 145 -36 0 -51 -5 -58 -17z m166 -506 c119 -304 268 -508 512 -703 71 -57 314 -175 438 -213 56 -17 105 -36 108 -40 3 -5 47 -19 98 -31 50 -11 101 -24 112 -27 13 -4 -15 -15 -85 -34 -226 -59 -453 -156 -620 -266 -119 -79 -299 -261 -383 -389 -89 -135 -176 -320 -229 -486 -53 -170 -65 -176 -98 -55 -176 627 -564 1014 -1185 1182 -55 15 -106 32 -113 38 -9 7 22 19 115 42 286 73 514 186 702 349 213 185 387 480 485 826 15 52 30 102 33 110 2 8 20 -36 39 -98 19 -62 51 -154 71 -205z"></path></g></g></svg>