<?xml version="1.0" encoding="utf-8"?>
<!DOCTYPE svg PUBLIC "-//W3C//DTD SVG 1.0//EN" "http://www.w3.org/TR/2001/REC-SVG-20010904/DTD/svg10.dtd">
<svg version="1.0" xmlns="http://www.w3.org/2000/svg" width="87px" height="87px" viewBox="0 0 87 87" preserveAspectRatio="xMidYMid meet">
 <g fill="#fbfbfb">
  <path d="M43.47 83.69 c-0.02 -0.07 -0.20 -0.76 -0.39 -1.55 -0.76 -3.06 -2.05 -6.98 -3.29 -10 -0.72 -1.77 -2.56 -5.45 -3.46 -6.95 -2.86 -4.79 -6.22 -8.59 -10.42 -11.80 -2.99 -2.29 -6.89 -4.44 -10.96 -6.07 -2.97 -1.19 -7.02 -2.39 -10.28 -3.04 -0.72 -0.14 -1.41 -0.28 -1.52 -0.31 -0.36 -0.08 -0.08 -0.19 1.14 -0.46 2.26 -0.52 7.32 -2.04 9.19 -2.77 0.29 -0.11 0.61 -0.20 0.71 -0.20 0.10 0 0.25 -0.05 0.32 -0.12 0.08 -0.07 0.54 -0.28 1.03 -0.48 1.37 -0.54 4.89 -2.16 5.35 -2.46 0.37 -0.24 1.06 -0.59 1.16 -0.59 0.06 0 0.14 -0.04 0.16 -0.08 0.05 -0.08 0.94 -0.68 1.01 -0.68 0.06 0 2.78 -1.87 3.28 -2.25 1.80 -1.38 4.43 -3.89 5.79 -5.54 3.17 -3.81 5.77 -8.40 7.97 -14.09 1.33 -3.42 2.50 -7.31 3.03 -10.04 0.15 -0.79 0.25 -0.96 0.31 -0.59 1.28 6.24 3.75 12.97 6.65 18.11 2.07 3.67 3.88 6.11 6.48 8.72 3.35 3.36 6.64 5.66 11.51 8.03 3.77 1.84 7.47 3.17 12.91 4.65 0.93 0.25 2.01 0.53 2.40 0.61 0.74 0.16 0.82 0.25 0.30 0.34 -0.62 0.10 -2.61 0.54 -4.73 1.03 -2.30 0.54 -6.05 1.79 -8.11 2.72 -0.36 0.16 -0.67 0.29 -0.70 0.29 -0.08 0 -3.20 1.54 -4.02 1.98 -1.91 1.04 -4.03 2.45 -6.12 4.09 -7.49 5.87 -13.09 15.53 -16.27 28.05 -0.23 0.89 -0.43 1.55 -0.46 1.49z"/>
  <path d="M72.96 26.51 c-0.03 -0.07 -0.15 -0.49 -0.28 -0.93 -1.21 -4.26 -3.41 -7.09 -6.80 -8.78 -1.16 -0.58 -1.90 -0.85 -3.29 -1.21 -0.79 -0.20 -1.05 -0.30 -0.98 -0.36 0.06 -0.05 0.49 -0.20 0.96 -0.32 1.02 -0.27 2.56 -0.87 3.47 -1.34 3.15 -1.62 5.46 -4.69 6.59 -8.70 0.28 -1.03 0.38 -0.98 0.83 0.47 0.45 1.41 1.19 2.98 1.95 4.13 0.71 1.09 2.24 2.63 3.25 3.30 1.42 0.93 3.35 1.76 5.27 2.26 0.59 0.16 0.83 0.25 0.72 0.29 -0.09 0.03 -0.53 0.14 -0.95 0.23 -0.43 0.10 -0.81 0.22 -0.83 0.26 -0.03 0.03 -0.44 0.20 -0.92 0.34 -1.05 0.32 -3.12 1.33 -3.72 1.81 -2.47 1.97 -3.87 4.15 -4.95 7.71 -0.16 0.53 -0.31 0.90 -0.33 0.83z"/>
 </g>
</svg>